<svg xmlns="http://www.w3.org/2000/svg" viewBox="0 0 1600 735">
  <path fill="none" fill-rule="evenodd" stroke="#742CA7" stroke-linecap="square" d="M1591.5 712.5v-59.636h8.5-8.5V712.5h-55.071v-59.636h55.071v-59.637h8.5-8.5v59.637h-55.071v-59.637h55.071v-59.636h8.5-8.5v59.636h-55.071v59.637h-55.072V712.5h-55.071v-59.636h55.071v-59.637h55.072v-59.636h55.071v-59.636h8.5-8.5v59.636h-55.071v59.636h-55.072v59.637h-55.071v-59.637h55.071v-59.636h55.072v-59.636h55.071v-59.637h8.5-8.5v59.637h-55.071v59.636h-55.072v59.636h-55.071v59.637h-55.072V712.5h-55.071v-59.636h55.071v-59.637h55.072v-59.636h55.071v-59.636h55.072v-59.637h55.071v-59.636h8.5-8.5v59.636h-55.071v59.637h-55.072v59.636h-55.071v59.636h-55.072v59.637h-55.071v-59.637h55.071v-59.636h55.072v-59.636h55.071v-59.637h55.072v-59.636h55.071v-59.637h8.5-8.5v59.637h-55.071v59.636h-55.072v59.637h-55.071v59.636h-55.072v59.636h-55.071v59.637h-55.072V712.5H1206v-59.636h55.071v-59.637h55.072v-59.636h55.071v-59.636h55.072v-59.637h55.071v-59.636h55.072v-59.637h55.071V235.41h8.5-8.5v59.636h-55.071v59.637h-55.072v59.636h-55.071v59.637h-55.072v59.636h-55.071v59.636h-55.072v59.637H1206v-59.637h55.071v-59.636h55.072v-59.636h55.071v-59.637h55.072v-59.636h55.071v-59.637h55.072V235.41h55.071v-59.636h8.5-8.5v59.636h-55.071v59.636h-55.072v59.637h-55.071v59.636h-55.072v59.637h-55.071v59.636h-55.072v59.636H1206v59.637h-55.071V712.5h-55.072v-59.636h55.072v-59.637H1206v-59.636h55.071v-59.636h55.072v-59.637h55.071v-59.636h55.072v-59.637h55.071V235.41h55.072v-59.636h55.071v-59.637h8.5-8.5v59.637h-55.071v59.636h-55.072v59.636h-55.071v59.637h-55.072v59.636h-55.071v59.637h-55.072v59.636H1206v59.636h-55.071v59.637h-55.072v-59.637h55.072v-59.636H1206v-59.636h55.071v-59.637h55.072v-59.636h55.071v-59.637h55.072V235.41h55.071v-59.636h55.072v-59.637h55.071V56.5h8.5-8.5v59.636h-55.071v59.637h-55.072v59.636h-55.071v59.636h-55.072v59.637h-55.071v59.636h-55.072v59.637H1206v59.636h-55.071v59.636h-55.072v59.637h-55.071V712.5h-55.072v-59.636h55.072v-59.637h55.071v-59.636h55.072v-59.636H1206v-59.637h55.071v-59.636h55.072v-59.637h55.071V235.41h55.072v-59.636h55.071v-59.637h55.072V56.5h55.071V-.438 56.5h-55.071v59.636h-55.072v59.637h-55.071v59.636h-55.072v59.636h-55.071v59.637h-55.072v59.636H1206v59.637h-55.071v59.636h-55.072v59.636h-55.071v59.637h-55.072v-59.637h55.072v-59.636h55.071v-59.636h55.072v-59.637H1206v-59.636h55.071v-59.637h55.072V235.41h55.071v-59.636h55.072v-59.637h55.071V56.5h55.072V-.438 56.5h-55.072v59.636h-55.071v59.637h-55.072v59.636h-55.071v59.636h-55.072v59.637H1206v59.636h-55.071v59.637h-55.072v59.636h-55.071v59.636h-55.072v59.637h-55.071V712.5H875.57v-59.636h55.072v-59.637h55.071v-59.636h55.072v-59.636h55.071v-59.637h55.072v-59.636H1206v-59.637h55.071V235.41h55.072v-59.636h55.071v-59.637h55.072V56.5h55.071V-.438 56.5h-55.071v59.636h-55.072v59.637h-55.071v59.636h-55.072v59.636H1206v59.637h-55.071v59.636h-55.072v59.637h-55.071v59.636h-55.072v59.636h-55.071v59.637H875.57v-59.637h55.072v-59.636h55.071v-59.636h55.072v-59.637h55.071v-59.636h55.072v-59.637H1206V235.41h55.071v-59.636h55.072v-59.637h55.071V56.5h55.072V-.438 56.5h-55.072v59.636h-55.071v59.637h-55.072v59.636H1206v59.636h-55.071v59.637h-55.072v59.636h-55.071v59.637h-55.072v59.636h-55.071v59.636H875.57v59.637H820.5V712.5h-55.071v-59.636H820.5v-59.637h55.071v-59.636h55.072v-59.636h55.071v-59.637h55.072v-59.636h55.071v-59.637h55.072V235.41H1206v-59.636h55.071v-59.637h55.072V56.5h55.071V-.438 56.5h-55.071v59.636h-55.072v59.637H1206v59.636h-55.071v59.636h-55.072v59.637h-55.071v59.636h-55.072v59.637h-55.071v59.636H875.57v59.636H820.5v59.637h-55.071v-59.637H820.5v-59.636h55.071v-59.636h55.072v-59.637h55.071v-59.636h55.072v-59.637h55.071V235.41h55.072v-59.636H1206v-59.637h55.071V56.5h55.072V-.438 56.5h-55.072v59.636H1206v59.637h-55.071v59.636h-55.072v59.636h-55.071v59.637h-55.072v59.636h-55.071v59.637H875.57v59.636H820.5v59.636h-55.071v59.637h-55.072V712.5h-55.071v-59.636h55.071v-59.637h55.072v-59.636H820.5v-59.636h55.071v-59.637h55.072v-59.636h55.071v-59.637h55.072V235.41h55.071v-59.636h55.072v-59.637H1206V56.5h55.071V-.438 56.5H1206v59.636h-55.071v59.637h-55.072v59.636h-55.071v59.636h-55.072v59.637h-55.071v59.636H875.57v59.637H820.5v59.636h-55.071v59.636h-55.072v59.637h-55.071v-59.637h55.071v-59.636h55.072v-59.636H820.5v-59.637h55.071v-59.636h55.072v-59.637h55.071V235.41h55.072v-59.636h55.071v-59.637h55.072V56.5H1206V-.438 56.5h-55.071v59.636h-55.072v59.637h-55.071v59.636h-55.072v59.636h-55.071v59.637H875.57v59.636H820.5v59.637h-55.071v59.636h-55.072v59.636h-55.071v59.637h-55.072V712.5h-55.071v-59.636h55.071v-59.637h55.072v-59.636h55.071v-59.636h55.072v-59.637H820.5v-59.636h55.071v-59.637h55.072V235.41h55.071v-59.636h55.072v-59.637h55.071V56.5h55.072V-.438 56.5h-55.072v59.636h-55.071v59.637h-55.072v59.636h-55.071v59.636H875.57v59.637H820.5v59.636h-55.071v59.637h-55.072v59.636h-55.071v59.636h-55.072v59.637h-55.071v-59.637h55.071v-59.636h55.072v-59.636h55.071v-59.637h55.072v-59.636H820.5v-59.637h55.071V235.41h55.072v-59.636h55.071v-59.637h55.072V56.5h55.071V-.438 56.5h-55.071v59.636h-55.072v59.637h-55.071v59.636H875.57v59.636H820.5v59.637h-55.071v59.636h-55.072v59.637h-55.071v59.636h-55.072v59.636h-55.071v59.637H490.07V712.5H435v-59.636h55.071v-59.637h55.072v-59.636h55.071v-59.636h55.072v-59.637h55.071v-59.636h55.072v-59.637H820.5V235.41h55.071v-59.636h55.072v-59.637h55.071V56.5h55.072V-.438 56.5h-55.072v59.636h-55.071v59.637H875.57v59.636H820.5v59.636h-55.071v59.637h-55.072v59.636h-55.071v59.637h-55.072v59.636h-55.071v59.636H490.07v59.637H435v-59.637h55.071v-59.636h55.072v-59.636h55.071v-59.637h55.072v-59.636h55.071v-59.637h55.072V235.41H820.5v-59.636h55.071v-59.637h55.072V56.5h55.071V-.438 56.5h-55.071v59.636H875.57v59.637H820.5v59.636h-55.071v59.636h-55.072v59.637h-55.071v59.636h-55.072v59.637h-55.071v59.636H490.07v59.636H435v59.637h-55.071V712.5h-55.072v22.063V712.5h-55.071v-59.636h-55.072v-59.637h-55.071v-59.636H104.57v-59.636H49.5v-59.637H0h49.5v59.637h55.071v59.636h55.072v-59.636h55.071v59.636h-55.071v-59.636H104.57v-59.637H49.5v-59.636H0h49.5v59.636h55.071v59.637h55.072v-59.637H104.57v-59.636H49.5v-59.637H0h49.5v59.637h55.071v59.636h55.072v59.637h55.071v-59.637h-55.071v-59.636H104.57v-59.637H49.5V235.41H0h49.5v59.636h55.071v59.637h55.072v59.636h55.071v59.637h55.072v-59.637h55.071v-59.636h55.072v-59.637H435V235.41h55.071v-59.636h55.072v-59.637h55.071V56.5h55.072V-.438 56.5h-55.072v59.636h-55.071v59.637H490.07v59.636H435v59.636h-55.071v59.637h-55.072v59.636h-55.071v-59.636h55.071v-59.637h55.072V235.41H435v-59.636h55.071v-59.637h55.072V56.5h55.071V-.438 56.5h-55.071v59.636H490.07v59.637H435v59.636h-55.071v59.636h-55.072v59.637h-55.071v59.636h-55.072v-59.636h55.072v-59.637h-55.072v59.637h55.072v-59.637h55.071V235.41h55.072v-59.636h-55.072v59.636h55.072v-59.636H435v-59.637h55.071V56.5h55.072V-.438 56.5H490.07v59.636H435v59.637h-55.071v-59.637H435V56.5h55.071V-.438 56.5H435v59.636h-55.071v59.637h-55.072v59.636h-55.071v59.636h-55.072V235.41h-55.071v-59.636H104.57v-59.637h55.072V56.5h55.071v59.636h-55.071v59.637h55.071v-59.637h-55.071v59.637h55.071v59.636h55.072v59.636h55.071V235.41h-55.071v-59.636h55.071v-59.637h55.072V56.5H435V-.438 56.5h-55.071v59.636h-55.072v59.637h-55.071v59.636h-55.072v-59.636h55.072v-59.637h55.071V56.5h55.072V-.438 56.5h-55.072v59.636h-55.071v59.637h-55.072v-59.637h55.072V56.5h55.071V-.438 56.5h-55.071v59.636h-55.072V56.5h55.072V-.438 56.5h-55.072V-.438 56.5h-55.071v59.636H104.57V56.5h55.072V-.438 56.5H104.57v59.636H49.5V56.5H0h49.5V-.438 56.5h55.071V-.438 56.5H49.5v59.636h55.071v59.637h55.072v59.636h55.071v59.636h-55.071V235.41H104.57v-59.636H49.5v-59.637H0h49.5v59.637h55.071v59.636h55.072v59.636H104.57V235.41H49.5v-59.636H0h49.5v59.636h55.071v59.636h55.072v59.637h55.071v-59.637h-55.071v59.637h55.071v59.636h55.072v59.637h55.071v-59.637h55.072v-59.636H435v-59.637h55.071V235.41h55.072v-59.636h55.071v-59.637h55.072V56.5h55.071V-.438 56.5h-55.071v59.636h-55.072v59.637h-55.071v59.636H490.07v59.636H435v59.637h-55.071v59.636H435v-59.636h55.071v-59.637h55.072V235.41h55.071v-59.636h55.072v-59.637h55.071V56.5h55.072V-.438 56.5h-55.072v59.636h-55.071v59.637h-55.072v59.636h-55.071v59.636H490.07v59.637H435v59.636h-55.071v59.637h-55.072v59.636h-55.071v-59.636h-55.072v59.636h-55.071v59.636h55.071v-59.636h55.072v-59.636h55.071v-59.637h55.072v59.637h-55.072v59.636h-55.071v59.636h-55.072v-59.636h55.072v59.636h-55.072v59.637h55.072v-59.637h55.071v-59.636h55.072v-59.636H435v-59.637h55.071v-59.636h55.072v-59.637h55.071V235.41h55.072v-59.636h55.071v-59.637h55.072V56.5H820.5V-.438 56.5h-55.071v59.636h-55.072v59.637h-55.071v59.636h-55.072v59.636h-55.071v59.637H490.07v59.636H435v59.637h-55.071v59.636h-55.072v59.636h-55.071v59.637h55.071V712.5h-55.071v22.063V712.5h-55.072v22.063V712.5h-55.071v22.063V712.5H104.57v22.063V712.5H49.5v22.063V712.5H0h49.5v-59.636H0h49.5V712.5h55.071v-59.636H49.5v-59.637H0h49.5v59.637h55.071V712.5h55.072v-59.636H104.57v-59.637H49.5v-59.636H0h49.5v59.636h55.071v59.637h55.072V712.5h55.071v-59.636h-55.071v-59.637H104.57v-59.636H49.5v-59.636H0h49.5v59.636h55.071v59.636h55.072v59.637h55.071V712.5h55.072v-59.636h55.071v-59.637h55.072v59.637h-55.072v-59.637h55.072v-59.636H435v-59.636h55.071v-59.637h55.072v-59.636h55.071v-59.637h55.072V235.41h55.071v-59.636h55.072v-59.637H820.5V56.5h55.071V-.438 56.5H820.5v59.636h-55.071v59.637h-55.072v59.636h-55.071v59.636h-55.072v59.637h-55.071v59.636H490.07v59.637H435v59.636h-55.071v59.636H435v-59.636h55.071v-59.636h55.072v-59.637h55.071v-59.636h55.072v-59.637h55.071V235.41h55.072v-59.636H820.5v-59.637h55.071V56.5h55.072V-.438 56.5H875.57v59.636H820.5v59.637h-55.071v59.636h-55.072v59.636h-55.071v59.637h-55.072v59.636h-55.071v59.637H490.07v59.636H435v59.636h-55.071v59.637h-55.072V712.5h55.072v-59.636H435V712.5h-55.071v22.063V712.5H435v22.063V712.5h55.071v-59.636h55.072V712.5H490.07v22.063V712.5h55.072v22.063V712.5h55.071v-59.636h55.072V712.5h-55.072v22.063V712.5h55.072v22.063V712.5h55.071v-59.636h55.072V712.5h-55.072v22.063V712.5h55.072v22.063V712.5H820.5v-59.636h55.071V712.5H820.5v22.063V712.5h55.071v22.063V712.5h55.072v-59.636h55.071V712.5h-55.071v22.063V712.5h55.071v22.063V712.5h55.072v-59.636h55.071V712.5h-55.071v22.063V712.5h55.071v22.063V712.5h55.072v-59.636H1206V712.5h-55.071v22.063V712.5H1206v22.063V712.5h55.071v-59.636h55.072V712.5h-55.072v22.063V712.5h55.072v22.063V712.5h55.071v-59.636h55.072V712.5h-55.072v22.063V712.5h55.072v22.063V712.5h55.071v-59.636h55.072V712.5h-55.072v22.063V712.5h55.072v22.063V712.5h55.071zm0 0h8.5-8.5v22.063V712.5z"/>
</svg>
